/* XPM */
static char *result[] = {
/* columns rows colors chars-per-pixel */
"20 20 12 1 ",
"  c #2D2206",
". c #3C2C1F",
"X c #3D3937",
"o c #4D1B00",
"O c #655448",
"+ c #81430E",
"@ c #C98B33",
"# c #8B8B61",
"$ c #FFEB76",
"% c #C0C096",
"& c #FFFFD5",
"* c None",
/* pixels */
"********************",
"XX   #&&&&&&%%# .XX.",
". .&%#   ooooo#%%  .",
" .&# o++++++++oo#%. ",
" .% o+$@$@@@@@++o%. ",
" & o+++++++++++++o# ",
" &O#%&&&&&&&&&%%#O% ",
" &     ooooooooooo% ",
" & ++++++++++o+o& % ",
" & +$$$$$@@+@++o# % ",
" & +$@$@$@@@@++o+o% ",
" & +++@@$@@@@++++o% ",
" % &%#o@$@@@@@+++o% ",
" % &%#o@$@@@@@+++o% ",
" % ###o@$@@@@@+++o% ",
" %   o+@@@@+@@+o& # ",
" # o+++@@@@+@++o# # ",
" # o+++@@@@+@++oo # ",
" #O%&&&&&&%%%%%##O# ",
" #OOOOOOOOOOOOOOOO# "
};
