/* XPM */
static char *result[] = {
/* columns rows colors chars-per-pixel */
"20 40 13 1 ",
"  c #27180F",
". c #4C4C4B",
"X c #A20319",
"o c red",
"O c #D86B03",
"+ c #FFAB00",
"@ c #FFE831",
"# c #4F3AFF",
"$ c #40ACFF",
"% c gray",
"& c #FFDF99",
"* c #F3F9F2",
"= c None",
/* pixels */
"====================",
"====================",
"====================",
"====================",
"=========   ========",
"==  ===== @+ =====  ",
"== o ==  @$#+  == o ",
"== o = #.$$##.# = o ",
"== oX $#$.$#.$#$ Xo ",
"== XoX$##.$#.##$XoX ",
"=== X%.++@@@@++.$o =",
"=== *%+#$    $#+$X =",
"====*%.+@@@@@@+.# ==",
"====*%+ + .. + +# ==",
"====*%@.* ++ *.@# ==",
"====*%@.* ++ *.@# ==",
"====*%#@.+&&+.@#   =",
"=== *% @.&&&&.@ #+ =",
"=== *%X  +&&+  X+.+ ",
"=== *%$X.#  #$.+@+# ",
"====*%@+$O++O$.@$#+ ",
"===++OO$$$##$$.@@X# ",
"===+O%.###$$##.@$+# ",
"===O%*.#$#@@#$.@$# =",
"===O  # O+@@+O .@+ =",
"== XOO#$@#$$#@$# X =",
"== XX #$+##$O+@$ XX ",
"== X   +O% $++O@ XX ",
"==  == %%%  **%     ",
"=======   =  %  ====",
"=========== **% ====",
"====================",
"====================",
"====================",
"====================",
"====================",
"====================",
"====================",
"====================",
"===================="
};
